<svg width="296" height="79" viewBox="0 0 296 79" fill="none" xmlns="http://www.w3.org/2000/svg">
<path d="M43 43.8424C43 44.8467 43.7153 45.4538 44.6009 45.4538C45.1474 45.4538 45.5805 45.1609 45.9574 44.7423L64.341 26.1421C64.5475 25.9118 64.7742 25.8279 65.0185 25.8279C65.2451 25.8279 65.4525 25.9118 65.6775 26.1421L84.0426 44.7423C84.438 45.1609 84.8711 45.4538 85.3991 45.4538C86.2839 45.4538 87 44.8467 87 43.8424C87 43.2149 86.7927 42.8176 86.435 42.4614L79.9174 35.8716V23.506C79.9174 22.5856 79.3902 22 78.5616 22H76.0944C75.2843 22 74.7194 22.5856 74.7194 23.506V30.6199L67.2599 23.0453C66.6009 22.3553 65.7908 22.0214 65 22.0214C64.2084 22.0214 63.4176 22.3562 62.7393 23.0462L43.565 42.4614C43.2258 42.8176 43 43.2149 43 43.8424ZM48.3869 61.3964C48.3869 64.3048 49.9693 66 52.6245 66H60.2536V51.1233C60.2536 50.1609 60.8371 49.5343 61.7034 49.5343H68.3528C69.2192 49.5343 69.7841 50.1609 69.7841 51.1233V66H77.3939C80.0492 66 81.6131 64.3048 81.6131 61.3964V46.0813L65.6212 30.0753C65.4139 29.8664 65.1881 29.762 64.9622 29.762C64.7549 29.762 64.5475 29.8664 64.3217 30.0967L48.3869 46.1858V61.3964Z" fill="#E07A5F"/>
<g filter="url(#filter0_i_36_158)">
<path d="M1.408 66V65.36L2.688 64.848C3.54133 64.5493 4.096 64.144 4.352 63.632C4.65067 63.12 4.8 62.4587 4.8 61.648V28.176C4.8 27.3227 4.65067 26.64 4.352 26.128C4.096 25.616 3.54133 25.2107 2.688 24.912L1.408 24.4V23.76H17.664V24.4L16.576 24.848C15.7653 25.1467 15.2107 25.552 14.912 26.064C14.6133 26.5333 14.464 27.1947 14.464 28.048V43.6H29.76V28.048C29.76 27.1947 29.6107 26.5333 29.312 26.064C29.056 25.552 28.5013 25.1467 27.648 24.848L26.496 24.4V23.76H42.816V24.4L41.536 24.912C40.7253 25.2107 40.1707 25.616 39.872 26.128C39.5733 26.64 39.424 27.3227 39.424 28.176V61.648C39.424 62.4587 39.5733 63.12 39.872 63.632C40.1707 64.144 40.7253 64.5493 41.536 64.848L42.816 65.36V66H26.496V65.36L27.648 64.976C28.5013 64.6347 29.056 64.2293 29.312 63.76C29.6107 63.248 29.76 62.5653 29.76 61.712V44.88H14.464V61.712C14.464 63.2907 15.168 64.3787 16.576 64.976L17.664 65.36V66H1.408ZM87.4705 66V65.36L88.8145 64.848C89.7105 64.5067 90.2652 64.1013 90.4785 63.632C90.7345 63.12 90.8625 62.4373 90.8625 61.584V28.176C90.8625 27.3227 90.7345 26.64 90.4785 26.128C90.2225 25.616 89.6678 25.2107 88.8145 24.912L87.4705 24.4V23.76H103.791V24.4L102.639 24.912C101.828 25.2107 101.273 25.6373 100.975 26.192C100.676 26.704 100.527 27.3867 100.527 28.24V64.72H110.383C111.961 64.72 113.113 64.336 113.839 63.568C114.607 62.8 115.332 61.6907 116.015 60.24L118.511 54.864H119.151L118.575 66H87.4705ZM121.471 66V65.36L122.751 64.848C123.604 64.5493 124.159 64.144 124.415 63.632C124.713 63.12 124.863 62.4373 124.863 61.584V28.176C124.863 27.3227 124.735 26.64 124.479 26.128C124.223 25.616 123.647 25.2107 122.751 24.912L121.471 24.4V23.76H137.919V24.4L136.639 24.912C135.785 25.2107 135.209 25.616 134.911 26.128C134.655 26.64 134.527 27.3227 134.527 28.176V61.584C134.527 62.4373 134.655 63.12 134.911 63.632C135.209 64.1013 135.785 64.5067 136.639 64.848L137.919 65.36V66H121.471ZM140.721 66V65.36L142.065 64.848C143.43 64.2933 144.113 63.2053 144.113 61.584V28.176C144.113 26.4693 143.43 25.3813 142.065 24.912L140.721 24.4V23.76H157.617C162.139 23.76 166.022 24.6133 169.265 26.32C172.55 27.984 175.067 30.3947 176.817 33.552C178.609 36.6667 179.505 40.4213 179.505 44.816C179.505 49.296 178.545 53.1147 176.625 56.272C174.705 59.4293 172.017 61.84 168.561 63.504C165.147 65.168 161.115 66 156.465 66H140.721ZM153.713 64.72H156.465C159.537 64.72 162.011 64.1227 163.889 62.928C165.766 61.6907 167.131 59.6427 167.985 56.784C168.881 53.8827 169.329 49.9147 169.329 44.88C169.329 39.8453 168.881 35.8987 167.985 33.04C167.131 30.1387 165.787 28.0907 163.953 26.896C162.118 25.6587 159.707 25.04 156.721 25.04H153.713V64.72ZM177.075 66V65.36L178.674 64.784C179.528 64.4427 180.189 64.0373 180.659 63.568C181.128 63.056 181.512 62.352 181.811 61.456L194.995 23.632H200.435L213.427 61.712C213.768 62.6507 214.152 63.376 214.579 63.888C215.005 64.3573 215.667 64.7627 216.562 65.104L217.331 65.36V66H201.075V65.36L202.035 65.04C202.931 64.6987 203.464 64.2293 203.635 63.632C203.848 62.992 203.827 62.2453 203.571 61.392L200.563 52.176H186.355L183.283 61.2C182.984 62.1387 182.877 62.8853 182.963 63.44C183.091 63.9947 183.603 64.4427 184.499 64.784L185.907 65.36V66H177.075ZM186.803 50.896H200.179L193.715 30.992L186.803 50.896ZM219.468 66V65.232L241.676 25.04H229.516C228.108 25.04 226.956 25.36 226.06 26C225.206 26.64 224.438 27.5787 223.756 28.816L220.812 34H220.172L220.62 23.76H251.916V24.528L229.708 64.72H243.66C245.068 64.72 246.177 64.4 246.988 63.76C247.841 63.0773 248.609 62.1173 249.292 60.88L252.044 55.76H252.684L252.236 66H219.468ZM255.408 66V65.36L256.88 64.784C257.605 64.4853 258.096 64.1013 258.352 63.632C258.651 63.12 258.8 62.4373 258.8 61.584V28.176C258.8 27.3227 258.672 26.6613 258.416 26.192C258.203 25.68 257.691 25.2747 256.88 24.976L255.408 24.4V23.76H286.064L286.448 33.616H285.808L283.056 27.6C282.672 26.832 282.267 26.2133 281.84 25.744C281.413 25.2747 280.773 25.04 279.92 25.04H268.4V43.536H275.248C276.101 43.536 276.741 43.3227 277.168 42.896C277.637 42.4267 278.043 41.808 278.384 41.04L279.664 38.48H280.304V50H279.664L278.384 47.312C278 46.544 277.595 45.9467 277.168 45.52C276.741 45.0507 276.101 44.816 275.248 44.816H268.4V64.72H281.328C282.181 64.72 282.843 64.5067 283.312 64.08C283.781 63.6107 284.165 62.9707 284.464 62.16L287.088 56.144H287.728L287.344 66H255.408Z" fill="white"/>
</g>
<circle cx="65.5" cy="44.5" r="28" stroke="#E07A5F"/>
<defs>
<filter id="filter0_i_36_158" x="1.408" y="23.632" width="286.32" height="46.368" filterUnits="userSpaceOnUse" color-interpolation-filters="sRGB">
<feFlood flood-opacity="0" result="BackgroundImageFix"/>
<feBlend mode="normal" in="SourceGraphic" in2="BackgroundImageFix" result="shape"/>
<feColorMatrix in="SourceAlpha" type="matrix" values="0 0 0 0 0 0 0 0 0 0 0 0 0 0 0 0 0 0 127 0" result="hardAlpha"/>
<feOffset dy="4"/>
<feGaussianBlur stdDeviation="2"/>
<feComposite in2="hardAlpha" operator="arithmetic" k2="-1" k3="1"/>
<feColorMatrix type="matrix" values="0 0 0 0 0 0 0 0 0 0 0 0 0 0 0 0 0 0 0.25 0"/>
<feBlend mode="normal" in2="shape" result="effect1_innerShadow_36_158"/>
</filter>
</defs>
</svg>
