<svg width="297" height="79" viewBox="0 0 297 79" fill="none" xmlns="http://www.w3.org/2000/svg">
<g filter="url(#filter0_i_19_9)">
<path d="M1.408 66V65.36L2.688 64.848C3.54133 64.5493 4.096 64.144 4.352 63.632C4.65067 63.12 4.8 62.4587 4.8 61.648V28.176C4.8 27.3227 4.65067 26.64 4.352 26.128C4.096 25.616 3.54133 25.2107 2.688 24.912L1.408 24.4V23.76H17.664V24.4L16.576 24.848C15.7653 25.1467 15.2107 25.552 14.912 26.064C14.6133 26.5333 14.464 27.1947 14.464 28.048V43.6H29.76V28.048C29.76 27.1947 29.6107 26.5333 29.312 26.064C29.056 25.552 28.5013 25.1467 27.648 24.848L26.496 24.4V23.76H42.816V24.4L41.536 24.912C40.7253 25.2107 40.1707 25.616 39.872 26.128C39.5733 26.64 39.424 27.3227 39.424 28.176V61.648C39.424 62.4587 39.5733 63.12 39.872 63.632C40.1707 64.144 40.7253 64.5493 41.536 64.848L42.816 65.36V66H26.496V65.36L27.648 64.976C28.5013 64.6347 29.056 64.2293 29.312 63.76C29.6107 63.248 29.76 62.5653 29.76 61.712V44.88H14.464V61.712C14.464 63.2907 15.168 64.3787 16.576 64.976L17.664 65.36V66H1.408ZM87.4705 66V65.36L88.8145 64.848C89.7105 64.5067 90.2652 64.1013 90.4785 63.632C90.7345 63.12 90.8625 62.4373 90.8625 61.584V28.176C90.8625 27.3227 90.7345 26.64 90.4785 26.128C90.2225 25.616 89.6678 25.2107 88.8145 24.912L87.4705 24.4V23.76H103.791V24.4L102.639 24.912C101.828 25.2107 101.273 25.6373 100.975 26.192C100.676 26.704 100.527 27.3867 100.527 28.24V64.72H110.383C111.961 64.72 113.113 64.336 113.839 63.568C114.607 62.8 115.332 61.6907 116.015 60.24L118.511 54.864H119.151L118.575 66H87.4705ZM121.471 66V65.36L122.751 64.848C123.604 64.5493 124.159 64.144 124.415 63.632C124.713 63.12 124.863 62.4373 124.863 61.584V28.176C124.863 27.3227 124.735 26.64 124.479 26.128C124.223 25.616 123.647 25.2107 122.751 24.912L121.471 24.4V23.76H137.919V24.4L136.639 24.912C135.785 25.2107 135.209 25.616 134.911 26.128C134.655 26.64 134.527 27.3227 134.527 28.176V61.584C134.527 62.4373 134.655 63.12 134.911 63.632C135.209 64.1013 135.785 64.5067 136.639 64.848L137.919 65.36V66H121.471ZM140.721 66V65.36L142.065 64.848C143.43 64.2933 144.113 63.2053 144.113 61.584V28.176C144.113 26.4693 143.43 25.3813 142.065 24.912L140.721 24.4V23.76H157.617C162.139 23.76 166.022 24.6133 169.265 26.32C172.55 27.984 175.067 30.3947 176.817 33.552C178.609 36.6667 179.505 40.4213 179.505 44.816C179.505 49.296 178.545 53.1147 176.625 56.272C174.705 59.4293 172.017 61.84 168.561 63.504C165.147 65.168 161.115 66 156.465 66H140.721ZM153.713 64.72H156.465C159.537 64.72 162.011 64.1227 163.889 62.928C165.766 61.6907 167.131 59.6427 167.985 56.784C168.881 53.8827 169.329 49.9147 169.329 44.88C169.329 39.8453 168.881 35.8987 167.985 33.04C167.131 30.1387 165.787 28.0907 163.953 26.896C162.118 25.6587 159.707 25.04 156.721 25.04H153.713V64.72ZM177.075 66V65.36L178.674 64.784C179.528 64.4427 180.189 64.0373 180.659 63.568C181.128 63.056 181.512 62.352 181.811 61.456L194.995 23.632H200.435L213.427 61.712C213.768 62.6507 214.152 63.376 214.579 63.888C215.005 64.3573 215.667 64.7627 216.562 65.104L217.331 65.36V66H201.075V65.36L202.035 65.04C202.931 64.6987 203.464 64.2293 203.635 63.632C203.848 62.992 203.827 62.2453 203.571 61.392L200.563 52.176H186.355L183.283 61.2C182.984 62.1387 182.877 62.8853 182.963 63.44C183.091 63.9947 183.603 64.4427 184.499 64.784L185.907 65.36V66H177.075ZM186.803 50.896H200.179L193.715 30.992L186.803 50.896ZM219.468 66V65.232L241.676 25.04H229.516C228.108 25.04 226.956 25.36 226.06 26C225.206 26.64 224.438 27.5787 223.756 28.816L220.812 34H220.172L220.62 23.76H251.916V24.528L229.708 64.72H243.66C245.068 64.72 246.177 64.4 246.988 63.76C247.841 63.0773 248.609 62.1173 249.292 60.88L252.044 55.76H252.684L252.236 66H219.468ZM255.408 66V65.36L256.88 64.784C257.605 64.4853 258.096 64.1013 258.352 63.632C258.651 63.12 258.8 62.4373 258.8 61.584V28.176C258.8 27.3227 258.672 26.6613 258.416 26.192C258.203 25.68 257.691 25.2747 256.88 24.976L255.408 24.4V23.76H286.064L286.448 33.616H285.808L283.056 27.6C282.672 26.832 282.267 26.2133 281.84 25.744C281.413 25.2747 280.773 25.04 279.92 25.04H268.4V43.536H275.248C276.101 43.536 276.741 43.3227 277.168 42.896C277.637 42.4267 278.043 41.808 278.384 41.04L279.664 38.48H280.304V50H279.664L278.384 47.312C278 46.544 277.595 45.9467 277.168 45.52C276.741 45.0507 276.101 44.816 275.248 44.816H268.4V64.72H281.328C282.181 64.72 282.843 64.5067 283.312 64.08C283.781 63.6107 284.165 62.9707 284.464 62.16L287.088 56.144H287.728L287.344 66H255.408Z" fill="white"/>
</g>
<path d="M66.5 17.5C81.395 17.5 93.5 30.019 93.5 45.5C93.5 60.981 81.395 73.5 66.5 73.5C51.605 73.5 39.5 60.981 39.5 45.5C39.5 30.019 51.605 17.5 66.5 17.5Z" stroke="#E07A5F"/>
<path d="M88.2414 63.3335H84.4483V45.4895L86.1874 47.3997C86.3298 47.5561 86.5228 47.6439 86.7241 47.6439C86.9254 47.6439 87.1185 47.5561 87.2609 47.3997C87.4032 47.2433 87.4832 47.0313 87.4832 46.8102C87.4832 46.5891 87.4032 46.377 87.2609 46.2207L68.6102 25.7352C68.3987 25.5022 68.1475 25.3173 67.8709 25.1911C67.5942 25.0649 67.2976 25 66.9981 25C66.6986 25 66.402 25.0649 66.1253 25.1911C65.8487 25.3173 65.5975 25.5022 65.386 25.7352L46.7391 46.2207C46.6687 46.2981 46.6127 46.39 46.5746 46.4911C46.5365 46.5923 46.5168 46.7007 46.5168 46.8102C46.5168 46.9197 46.5365 47.0281 46.5746 47.1292C46.6127 47.2304 46.6687 47.3223 46.7391 47.3997C46.8096 47.4771 46.8933 47.5385 46.9854 47.5804C47.0775 47.6223 47.1762 47.6439 47.2759 47.6439C47.3755 47.6439 47.4742 47.6223 47.5663 47.5804C47.6584 47.5385 47.7421 47.4771 47.8126 47.3997L49.5517 45.4895V63.3335H45.7586C45.5574 63.3335 45.3645 63.4213 45.2222 63.5776C45.0799 63.7338 45 63.9458 45 64.1668C45 64.3877 45.0799 64.5997 45.2222 64.7559C45.3645 64.9122 45.5574 65 45.7586 65H88.2414C88.4426 65 88.6355 64.9122 88.7778 64.7559C88.9201 64.5997 89 64.3877 89 64.1668C89 63.9458 88.9201 63.7338 88.7778 63.5776C88.6355 63.4213 88.4426 63.3335 88.2414 63.3335ZM51.069 43.823L66.4633 26.9143C66.5337 26.8368 66.6174 26.7753 66.7095 26.7334C66.8016 26.6915 66.9003 26.6699 67 26.6699C67.0997 26.6699 67.1984 26.6915 67.2905 26.7334C67.3826 26.7753 67.4663 26.8368 67.5367 26.9143L82.931 43.823V63.3335H72.3103V50.8348C72.3103 50.6138 72.2304 50.4018 72.0882 50.2456C71.9459 50.0893 71.7529 50.0015 71.5517 50.0015H62.4483C62.2471 50.0015 62.0541 50.0893 61.9118 50.2456C61.7696 50.4018 61.6897 50.6138 61.6897 50.8348V63.3335H51.069V43.823ZM70.7931 63.3335H63.2069V51.668H70.7931V63.3335Z" fill="#E07A5F"/>
<defs>
<filter id="filter0_i_19_9" x="1.408" y="23.632" width="286.32" height="46.368" filterUnits="userSpaceOnUse" color-interpolation-filters="sRGB">
<feFlood flood-opacity="0" result="BackgroundImageFix"/>
<feBlend mode="normal" in="SourceGraphic" in2="BackgroundImageFix" result="shape"/>
<feColorMatrix in="SourceAlpha" type="matrix" values="0 0 0 0 0 0 0 0 0 0 0 0 0 0 0 0 0 0 127 0" result="hardAlpha"/>
<feOffset dy="4"/>
<feGaussianBlur stdDeviation="2"/>
<feComposite in2="hardAlpha" operator="arithmetic" k2="-1" k3="1"/>
<feColorMatrix type="matrix" values="0 0 0 0 0 0 0 0 0 0 0 0 0 0 0 0 0 0 0.25 0"/>
<feBlend mode="normal" in2="shape" result="effect1_innerShadow_19_9"/>
</filter>
</defs>
</svg>
